<svg width="150" height="80" viewBox="0 0 150 80" fill="none" xmlns="http://www.w3.org/2000/svg">
<path fill-rule="evenodd" clip-rule="evenodd" d="M0.0151367 0H149.985V79.374H0.0151367V0Z" fill="white"/>
<path fill-rule="evenodd" clip-rule="evenodd" d="M140.619 78.4899L135.223 63.2652V0.0182343H139.396V63.2652L142.657 74.3552L145.827 63.2652V0.0182343H150V63.2652L144.541 78.4899H140.619V78.4899ZM127.159 66.8555C126.511 66.8555 125.921 67.1065 125.387 67.6084C124.853 68.1103 124.503 68.7356 124.336 69.4837H130.107C130.045 69.0988 129.899 68.714 129.669 68.3299C129.494 68.0356 129.295 67.7569 129.072 67.4969C128.425 67.0688 127.787 66.8555 127.159 66.8555ZM120.225 72.3684V71.6316C120.225 69.4091 120.748 67.5178 121.794 65.9583C122.367 65.1037 123.058 64.4406 123.864 63.9708V0.0182343H130.148V63.638C131.102 64.0477 131.915 64.6915 132.587 65.5727C133.653 66.9838 134.187 68.714 134.187 70.7657C134.187 71.0864 134.176 71.343 134.156 71.5354C134.136 71.727 134.093 72.0052 134.031 72.3684H124.336C124.336 73.5654 124.66 74.4682 125.308 75.0768C125.872 75.6003 126.585 75.8625 127.441 75.8625C128.089 75.8625 128.67 75.7174 129.182 75.4295C129.696 75.1409 130.004 74.7825 130.107 74.3552H134.031C134.031 75.3806 133.34 76.4494 131.959 77.5606C130.454 78.7577 128.854 79.3558 127.159 79.3558C125.152 79.3558 123.509 78.6294 122.233 77.1758C121.104 75.8938 120.435 74.291 120.225 72.3684V72.3684ZM110.939 66.5981C110.019 66.5981 109.296 67.0471 108.773 67.9451C108.251 68.8423 107.988 69.8998 107.988 71.1185C107.988 72.3147 108.245 73.3618 108.757 74.259C109.271 75.1569 109.998 75.6059 110.939 75.6059C112.089 75.6059 112.958 75.0607 113.543 73.9711C113.982 73.159 114.201 72.1656 114.201 70.9902C114.201 69.6015 113.814 68.4903 113.04 67.6565C112.393 66.9517 111.693 66.5981 110.939 66.5981V66.5981ZM118.249 78.4899H114.201V77.1758C113.887 77.7098 113.333 78.1804 112.538 78.5861C111.744 78.9926 110.896 79.1954 109.998 79.1954C109.035 79.1954 108.167 78.9605 107.394 78.4899C106.493 77.935 105.741 77.0587 105.134 75.8625C104.716 74.9854 104.408 74.1147 104.209 73.2496C104.01 72.3845 103.912 71.5666 103.912 70.797C103.912 69.9848 104.001 69.1894 104.178 68.4085C104.357 67.6284 104.728 66.7529 105.291 65.7803C105.857 64.8078 106.547 64.0974 107.363 63.6493C107.516 63.5651 107.673 63.4881 107.831 63.4191V0.0182343H111.689V63.2299C111.98 63.3189 112.263 63.432 112.538 63.5699C113.334 63.9644 113.889 64.4727 114.201 65.0916V0.0182343H118.249V78.4899H118.249ZM94.9382 66.8555C94.2896 66.8555 93.6979 67.1065 93.1655 67.6084C92.6315 68.1103 92.2804 68.7356 92.1144 69.4837H97.8863C97.8237 69.0988 97.6778 68.714 97.4477 68.3299C97.2732 68.0356 97.0737 67.7569 96.8512 67.4969C96.2034 67.0688 95.5644 66.8555 94.9382 66.8555ZM88.0046 72.3684V71.6316C88.0046 69.4091 88.5273 67.5178 89.5736 65.9583C90.1934 65.0331 90.9503 64.334 91.8426 63.8585V0.0182343H98.1284V63.7278C98.9959 64.1399 99.7416 64.7541 100.366 65.5727C101.432 66.9838 101.966 68.714 101.966 70.7657C101.966 71.0864 101.955 71.343 101.935 71.5354C101.901 71.8141 101.859 72.0919 101.81 72.3684H92.1152C92.1152 73.5654 92.4391 74.4682 93.0877 75.0768C93.6514 75.6003 94.3642 75.8625 95.2204 75.8625C95.8691 75.8625 96.4495 75.7174 96.9619 75.4295C97.4742 75.1409 97.7821 74.7825 97.8871 74.3552H101.81C101.81 75.3806 101.12 76.4494 99.7384 77.5606C98.2319 78.7577 96.6331 79.3558 94.939 79.3558C92.9298 79.3558 91.2886 78.6294 90.0122 77.1758C88.8825 75.8938 88.2138 74.291 88.0046 72.3684V72.3684ZM78.8749 66.5981C77.8286 66.5981 77.018 67.0471 76.4432 67.9451C75.8683 68.8423 75.5805 69.9102 75.5805 71.1505C75.5805 72.3893 75.8419 73.4147 76.3654 74.2277C76.9715 75.1465 77.8094 75.6059 78.8757 75.6059C79.817 75.6059 80.5482 75.1569 81.0709 74.259C81.5937 73.3618 81.8559 72.3147 81.8559 71.1185C81.8559 69.8998 81.6057 68.8639 81.103 68.0092C80.5378 67.0688 79.7937 66.5981 78.8749 66.5981V66.5981ZM71.5332 78.4899V0.0182343H75.5797V65.0916C75.8523 64.4935 76.3798 63.9916 77.1599 63.5851C77.4638 63.4273 77.7822 63.2995 78.1108 63.2035V0.0182343H81.9705V63.4071C82.1212 63.4705 82.268 63.5402 82.4139 63.6172C83.2253 64.0445 83.9044 64.7501 84.448 65.733C84.8929 66.4811 85.2433 67.266 85.5095 68.0886C85.7709 68.9112 85.9024 69.814 85.9024 70.797C85.9024 71.6091 85.8134 72.4205 85.6346 73.2327C85.451 74.0457 85.1431 74.9212 84.7045 75.8617C84.1144 77.0363 83.3544 77.9022 82.4291 78.4578C81.6306 78.9485 80.7454 79.1946 79.7777 79.1946C78.8316 79.1946 77.9689 78.9966 77.1904 78.6021C76.4103 78.2068 75.8715 77.7314 75.5789 77.1758V78.4899H71.5332V78.4899ZM61.7757 66.8555C61.1271 66.8555 60.537 67.1065 60.0039 67.6084C59.4699 68.1103 59.1195 68.7356 58.9527 69.4837H64.7254C64.6533 69.0748 64.5042 68.6832 64.2861 68.3299C64.1121 68.0353 63.9125 67.7565 63.6896 67.4969C63.0409 67.0688 62.4035 66.8555 61.7757 66.8555ZM54.8421 72.3684V71.6316C54.8421 69.4091 55.3649 67.5178 56.4112 65.9583C57.0317 65.0331 57.7886 64.334 58.6809 63.8585V0.0182343H64.966V63.7278C65.8335 64.1399 66.5799 64.7541 67.2045 65.5727C68.2716 66.9838 68.804 68.714 68.804 70.7657C68.804 71.0864 68.7936 71.343 68.7727 71.5354C68.7519 71.727 68.7102 72.0052 68.6476 72.3684H58.9519C58.9519 73.5654 59.2758 74.4682 59.9245 75.0768C60.4897 75.6003 61.2001 75.8625 62.058 75.8625C62.7058 75.8625 63.2863 75.7174 63.7986 75.4295C64.3117 75.1409 64.6196 74.7825 64.7246 74.3552H68.646C68.646 75.3806 67.9557 76.4494 66.5751 77.5606C65.0694 78.7577 63.4691 79.3558 61.7749 79.3558C59.7673 79.3558 58.1253 78.6294 56.8497 77.1758C55.7208 75.8938 55.0514 74.291 54.8421 72.3684V72.3684ZM4.04729 74.5476C4.21486 75.3806 4.80015 75.7984 5.80395 75.7984C6.28501 75.7984 6.7821 75.6645 7.29443 75.3975C7.80675 75.1305 8.24051 74.7408 8.59649 74.2277C8.8266 73.992 8.98294 73.6825 9.06712 73.2977C9.15051 72.9136 9.193 72.4534 9.193 71.9194V71.2147C8.94205 71.7695 8.01601 72.1487 6.4165 72.3524C4.81618 72.5552 4.01602 73.1052 4.01602 74.0032L4.04729 74.5476V74.5476ZM0 75.2211V74.9004C0 72.4855 0.789735 70.8828 2.3684 70.093C2.83423 69.8573 4.30867 69.5582 6.79253 69.195C8.39284 68.9601 9.193 68.3195 9.193 67.2724C9.10962 66.9092 8.8266 66.6045 8.35115 66.3584C7.86411 66.1099 7.32403 65.9833 6.77729 65.9896C6.05651 65.9896 5.45439 66.1668 4.96852 66.5188C4.48185 66.8707 4.23571 67.3895 4.23571 68.0726V68.4254H0.376828C0.376828 66.4594 0.894766 65.0379 1.92984 64.1624C2.33072 63.8232 2.81338 63.5506 3.37782 63.343V0.0182343H9.66283V63.25C10.1776 63.4167 10.6274 63.6348 11.013 63.9058C12.2678 64.7821 12.8955 66.2341 12.8955 68.265V74.9966C12.8955 76.5352 13.1986 77.4756 13.8055 77.818V78.4907H9.44475C9.33424 78.288 9.23468 78.0795 9.1465 77.8661C9.07274 77.6841 9.03586 77.4548 9.03586 77.1774C8.57645 77.7963 7.90697 78.3047 7.02824 78.6991C6.18168 79.0875 5.26169 79.2898 4.33031 79.2924C3.20063 79.2924 2.26979 78.9934 1.53778 78.3953C0.679894 77.6889 0.167568 76.6314 0 75.2211V75.2211ZM15.656 78.4899V0.0182343H19.5149V65.701C19.8284 65.0387 20.3094 64.4406 20.9581 63.9066C21.3694 63.5651 21.7775 63.3157 22.1831 63.1554V0.0182343H24.0641V67.0151C22.4533 67.0151 21.3453 67.2291 20.7392 67.6565C19.923 68.2337 19.5157 69.345 19.5157 70.9902V78.4899H15.656V78.4899ZM27.7353 75.8625V66.4065H25.759V63.4568H27.7353V0.0182343H31.5317V63.4568H33.7277V66.4065H31.5317V74.5476C31.5942 75.1024 31.7353 75.4664 31.955 75.6372C32.1739 75.808 32.473 75.893 32.849 75.893L33.7277 75.8617V78.4891C33.0999 78.8314 32.3679 79.003 31.5317 79.003C30.4854 79.003 29.6283 78.7673 28.9588 78.2974C28.1426 77.721 27.7353 76.9096 27.7353 75.8625V75.8625ZM35.6415 78.6831V74.356H39.9398V78.6831H35.6415ZM53.2426 78.4899H49.3837V0.0182343H53.2426V78.4899Z" fill="#363637"/>
</svg>
