<svg width="200" height="60" viewBox="0 0 200 60" fill="none" xmlns="http://www.w3.org/2000/svg">
<g clip-path="url(#clip0_243_3)">
<path d="M84.6959 39.8284C84.6959 41.651 83.9988 42.3477 82.2835 42.3477H76.2261V36.1297H82.2835C83.9988 36.1297 84.6959 36.9874 84.6959 38.6491V39.8284ZM82.2835 32.0556H69.6328V35.8616L71.8843 36.1833V51.4071H76.2261V46.4216H82.2835C87.2688 46.4216 88.9843 43.9022 88.9843 39.9892V38.4883C88.9843 34.7896 87.3761 32.0556 82.2835 32.0556V32.0556ZM175.717 32.0556H177.325V51.4071H172.983V37.6838L164.031 51.4071H159.046V32.0556H163.388V45.2988L169.928 35.1648C171.589 32.5916 173.037 32.0556 175.717 32.0556V32.0556ZM53.1762 8.41599H65.0228V10.8281C65.0228 12.7579 64.8619 14.3659 64.433 15.8133H60.7343V12.4898H53.1762C50.9247 12.4898 50.3885 13.0796 50.3885 15.5454V20.6378C50.3885 23.1036 50.9247 23.6934 53.1762 23.6934H65.0228V27.7672H53.1762C47.6549 27.7672 46.0467 26.1592 46.0467 20.6378V15.5454C46.0467 9.97045 47.6549 8.41599 53.1762 8.41599V8.41599ZM172.983 8.41599H177.325V27.7672H172.983V19.9945H163.388V27.7672H159.046V8.41599H163.388V15.9206H172.983V8.41599ZM58.5366 47.3332H51.0317V43.5808H58.5366C59.984 43.5808 60.52 44.2777 60.52 45.4032C60.52 46.5289 59.984 47.3332 58.5366 47.3332ZM59.6621 37.845C59.6621 39.0245 59.0728 39.6675 57.5717 39.6675H51.0317V36.1833H57.5717C59.0728 36.1833 59.6621 36.7193 59.6621 37.845V37.845ZM62.1411 41.1809C63.1587 40.5598 64.0043 39.2397 64.0043 37.2017C64.0043 34.575 62.5034 32.0556 58.0541 32.0556H46.69V51.4071H58.4831C62.7713 51.4071 64.8619 49.2094 64.8619 45.6177C64.8619 43.2027 63.475 41.7793 62.1411 41.1809V41.1809ZM143.393 32.0556H155.347V34.468C155.347 36.3978 155.186 38.0058 154.757 39.4532H151.059V36.1297H143.393C141.142 36.1297 140.606 36.7193 140.606 39.1851V44.2777C140.606 46.7435 141.142 47.3332 143.393 47.3332H155.347V51.4071H143.393C137.872 51.4071 136.264 49.7989 136.264 44.2777V39.1851C136.264 33.6101 137.872 32.0556 143.393 32.0556V32.0556ZM106.781 44.2777C106.781 46.7435 106.245 47.3332 103.994 47.3332H98.8475C96.596 47.3332 96.06 46.7435 96.06 44.2777V39.1851C96.06 36.7193 96.596 36.1297 98.8475 36.1297H103.994C106.245 36.1297 106.781 36.7193 106.781 39.1851V44.2777ZM103.994 32.0556H98.8475C93.326 32.0556 91.718 33.6101 91.718 39.1851V44.2777C91.718 49.7989 93.326 51.4071 98.8475 51.4071H103.994C109.569 51.4071 111.123 49.7989 111.123 44.2777V39.1851C111.123 33.6101 109.569 32.0556 103.994 32.0556ZM75.164 12.4898H82.8198V23.1036H73.5322C74.1257 22.0666 74.3761 20.6209 74.5645 18.7617L75.164 12.4898ZM87.1615 8.41599H71.3481L70.3834 18.2257C69.9009 22.8893 69.2039 23.6396 67.9173 23.6396H67.6494V29.5898H71.777L71.9379 27.1239H84.6959L84.8567 29.5898H88.9843V23.5861H87.1615V8.41599ZM121.308 32.0556H133.208V34.468C133.208 36.3978 133.047 38.0058 132.618 39.4532H128.92V36.1297H121.308C119.056 36.1297 118.52 36.7193 118.52 39.1851V44.2777C118.52 46.7435 119.056 47.3332 121.308 47.3332H133.208V51.4071H121.308C115.787 51.4071 114.178 49.7989 114.178 44.2777V39.1851C114.178 33.6101 115.787 32.0556 121.308 32.0556V32.0556ZM195.658 20.6378C195.658 23.1036 195.122 23.6934 192.871 23.6934H188.1C185.848 23.6934 185.312 23.1036 185.312 20.6378V15.5454C185.312 13.0796 185.848 12.4898 188.1 12.4898H192.871C195.122 12.4898 195.658 13.0796 195.658 15.5454V20.6378ZM192.871 8.41599H188.1C182.578 8.41599 180.97 9.97045 180.97 15.5454V20.6378C180.97 26.1592 183.114 27.7672 188.636 27.7672H192.335C197.909 27.7672 200 26.1592 200 20.6378V15.5454C200 9.97045 198.446 8.41599 192.871 8.41599ZM92.0397 20.6378V15.5454C92.0397 9.97045 93.5941 8.41599 99.1691 8.41599H110.533V12.4898H98.9546C96.7033 12.4898 96.3816 12.865 96.3816 15.3309V15.9742H107.371V19.9945H96.3816V20.8523C96.3816 23.3182 96.7033 23.6934 98.9546 23.6934H110.694V27.7672H99.1691C93.5941 27.7672 92.0397 26.1592 92.0397 20.6378V20.6378ZM143.822 12.4898H150.63V17.2607H141.034V15.5454C141.034 13.3477 141.303 12.4898 143.822 12.4898ZM141.034 21.2811H150.63V27.7672H154.972V8.41599H143.822C138.354 8.41599 136.693 9.91692 136.693 15.5454V27.7672H141.034V21.2811ZM25.5695 32.0556H29.9115V51.4071H16.0279C10.4529 51.4071 8.36241 49.3164 8.36241 43.7417V32.0556H12.7043V43.8487C12.7043 46.3148 13.6692 47.3332 15.9207 47.3332H25.5695V32.0556ZM4.18108 4.1811H34.0928V55.642H4.18108V4.1811ZM0 59.8229H38.274V-4.03928e-05H0V59.8229ZM113.321 27.7672V23.6396C115.09 23.6396 115.519 22.5676 115.894 18.976L117.073 8.41599H132.618V27.7672H128.277V12.4898H120.789L120.022 19.8874C119.378 26.2663 117.663 27.9818 113.321 27.7672V27.7672ZM198.07 32.0556H199.678V51.4071H195.336V37.6838L186.384 51.4071H181.399V32.0556H185.741V45.2988L192.281 35.1648C193.943 32.5916 195.39 32.0556 198.07 32.0556ZM23.4255 16.8856H12.7043V12.4898H23.4255C25.0333 12.4898 25.7839 13.3477 25.7839 14.6341C25.7839 15.9206 25.1406 16.8856 23.4255 16.8856V16.8856ZM30.126 14.1516C30.126 10.9354 28.5716 8.41599 24.0148 8.41599H8.36241V27.7672H12.7043V20.9594H22.7285C24.98 20.9594 25.5695 21.6027 25.5695 23.8542V27.7672H29.9115V23.1572C29.9115 20.8578 29.0958 19.5089 27.284 19.05C29.1689 18.4128 30.126 16.5903 30.126 14.1516" fill="#231F20"/>
</g>
<defs>
<clipPath id="clip0_243_3">
<rect width="200" height="59.8229" fill="white"/>
</clipPath>
</defs>
</svg>
